<?xml version="1.0" encoding="UTF-8"?>
<svg width="40px" height="40px" viewBox="0 0 40 40" version="1.1" xmlns="http://www.w3.org/2000/svg">
  <defs>
    <linearGradient id="azure-gradient" x1="0%" y1="0%" x2="100%" y2="100%">
      <stop offset="0%" style="stop-color:#0078D4"/>
      <stop offset="50%" style="stop-color:#8661C5"/>
      <stop offset="100%" style="stop-color:#E74C84"/>
    </linearGradient>
  </defs>
  <g stroke="none" fill="none">
    <path d="M20,5 C12.268,5 6,11.268 6,19 C6,26.732 12.268,33 20,33 C27.732,33 34,26.732 34,19 C34,11.268 27.732,5 20,5 Z" fill="url(#azure-gradient)"/>
    <path d="M16,13 L24,13 C26,13 27,15 26,17 L22,17 C20,17 19,15 16,13 Z" fill="#FFFFFF"/>
    <path d="M17,17 L25,17 C26,17 26.5,18 26,19 L18,19 C17,19 16.5,18 17,17 Z" fill="#FFFFFF"/>
    <path d="M16,21 L24,21 C26,21 27,23 26,25 L22,25 C20,25 19,23 16,21 Z" fill="#FFFFFF"/>
  </g>
</svg>